<?xml version="1.0" encoding="UTF-8"?>
<svg width="200" height="50" viewBox="0 0 200 50" fill="none" xmlns="http://www.w3.org/2000/svg">
  <!-- New Logo (Dark Mode) -->
  <g transform="translate(10, 10)">
    <!-- Chat bubble icon -->
    <path d="M20 0C8.954 0 0 8.954 0 20C0 31.046 8.954 40 20 40C31.046 40 40 31.046 40 20C40 8.954 31.046 0 20 0ZM20 36C11.163 36 4 28.837 4 20C4 11.163 11.163 4 20 4C28.837 4 36 11.163 36 20C36 28.837 28.837 36 20 36Z" fill="#818CF8"/>
    <path d="M20 8C14.477 8 10 12.477 10 18C10 23.523 14.477 28 20 28C25.523 28 30 23.523 30 18C30 12.477 25.523 8 20 8ZM20 24C16.686 24 14 21.314 14 18C14 14.686 16.686 12 20 12C23.314 12 26 14.686 26 18C26 21.314 23.314 24 20 24Z" fill="#818CF8"/>
    <path d="M20 16C18.895 16 18 16.895 18 18C18 19.105 18.895 20 20 20C21.105 20 22 19.105 22 18C22 16.895 21.105 16 20 16Z" fill="#818CF8"/>
    
    <!-- Text "Chatwoot" -->
    <text x="50" y="25" font-family="Arial, sans-serif" font-size="20" font-weight="bold" fill="#F3F4F6">ChatWoot</text>
  </g>
</svg> 