<?xml version="1.0" encoding="UTF-8"?>
<svg width="512" height="512" viewBox="0 0 512 512" fill="none" xmlns="http://www.w3.org/2000/svg">
  <!-- New Logo Thumbnail -->
  <rect width="512" height="512" rx="256" fill="#4F46E5"/>
  <g transform="translate(156, 156)">
    <!-- Chat bubble icon -->
    <path d="M100 0C44.772 0 0 44.772 0 100C0 155.228 44.772 200 100 200C155.228 200 200 155.228 200 100C200 44.772 155.228 0 100 0ZM100 180C55.817 180 20 144.183 20 100C20 55.817 55.817 20 100 20C144.183 20 180 55.817 180 100C180 144.183 144.183 180 100 180Z" fill="white"/>
    <path d="M100 40C72.386 40 50 62.386 50 90C50 117.614 72.386 140 100 140C127.614 140 150 117.614 150 90C150 62.386 127.614 40 100 40ZM100 120C83.431 120 70 106.569 70 90C70 73.431 83.431 60 100 60C116.569 60 130 73.431 130 90C130 106.569 116.569 120 100 120Z" fill="white"/>
    <path d="M100 80C94.477 80 90 84.477 90 90C90 95.523 94.477 100 100 100C105.523 100 110 95.523 110 90C110 84.477 105.523 80 100 80Z" fill="white"/>
  </g>
</svg> 